General

Format                         : MPEG-4
Format profile                 : Base Media
Codec ID                       : isom
File size                      : 121 MiB
Duration                       : 4mn 37s
Overall bit rate mode          : Variable
Overall bit rate               : 3 650 Kbps
Encoded date                   : UTC 2012-07-30 04:00:29
Tagged date                    : UTC 2012-07-30 04:00:29

Video
ID                             : 1
Format                         : AVC
Format/Info                    : Advanced Video Codec
Format profile                 : High@L3.0
Format settings, CABAC         : Yes
Format settings, ReFrames      : 2 frames
Codec ID                       : avc1
Codec ID/Info                  : Advanced Video Coding
Duration                       : 4mn 37s
Bit rate                       : 3 294 Kbps
Maximum bit rate               : 5 456 Kbps
Width                          : 640 pixels
Height                         : 480 pixels
Display aspect ratio           : 4:3
Frame rate mode                : Constant
Frame rate                     : 29.970 fps
Color space                    : YUV
Chroma subsampling             : 4:2:0
Bit depth                      : 8 bits
Scan type                      : Progressive
Bits/(Pixel*Frame)             : 0.358
Stream size                    : 114 MiB (95%)


Audio
ID                             : 2
Format                         : AAC
Format/Info                    : Advanced Audio Codec
Format profile                 : LC
Codec ID                       : 40
Duration                       : 4mn 37s
Bit rate mode                  : Variable
Bit rate                       : 192 Kbps
Maximum bit rate               : 205 Kbps
Channel(s)                     : 2 channels
Channel positions              : Front: L R
Sampling rate                  : 44.1 KHz
Compression mode               : Lossy
Delay relative to video        : -667ms
Stream size                    : 6.35 MiB (5%)